<svg xmlns="http://www.w3.org/2000/svg" viewBox="0 0 73.27 70.94" class="GameLogo-dqQYZs KcBKG"><defs><style>.korunka_na4_svg__cls-1{fill:#ff5033;opacity:.5}</style></defs><path d="M1.07 29.51c-3.59 22.55 38.77 50.35 59.49 38.67C77.52 57.4 73.28 7.79 51.7.83 40.23-2.87 6.32 5.61 1.07 29.51z" class="korunka_na4_svg__cls-1"></path><path d="M64.86 6.52C46.7-4.9-5.22 26.41.43 48.37 6.07 66.79 50.08 75.42 60.2 59.64c5.38-8.39 23.6-39.78 4.66-53.12z" class="korunka_na4_svg__cls-1"></path><path fill="#309" d="M59.52 46.82V34.49a5.43 5.43 0 00-5.41-5.43h-8.25a5.45 5.45 0 00-4.63 2.58l-.32.52A6.48 6.48 0 0036 30a7 7 0 00-2.91.61 6.23 6.23 0 00-2.57-.55 5.67 5.67 0 00-1.24.11 4.58 4.58 0 00-.53 0h-1.29a4.06 4.06 0 00-4.07 4.07v5.14a4.07 4.07 0 004.06 4.07h1.31a3.39 3.39 0 001.24-.18 4 4 0 001.22.19h1.31a3.82 3.82 0 00.9-.11l.54.13-3.68 6a5.4 5.4 0 00-.8 2.84v4.64a5.42 5.42 0 005.41 5.43h8.51v.1a5.43 5.43 0 005.42 5.43h5.27a5.41 5.41 0 005.42-5.42v-.16A5.45 5.45 0 0064.09 57v-4.8a5.44 5.44 0 00-4.57-5.38z"></path><path d="M30.51 34.06a1.73 1.73 0 00-1.66.85v-.66a.11.11 0 00-.11-.11h-1.28a.11.11 0 00-.08 0 .11.11 0 000 .07v5.14a.11.11 0 00.11.11h1.3a.1.1 0 00.11-.11v-2.62a1.37 1.37 0 01.34-1 1.1 1.1 0 01.83-.3.94.94 0 011.05 1v2.94a.11.11 0 00.11.11h1.3a.1.1 0 00.11-.11v-3.05a2.1 2.1 0 00-2.13-2.26zM36 34a3.12 3.12 0 00-2.64 1.36.11.11 0 000 .08v.07l1.06.69a.11.11 0 00.08 0 .06.06 0 00.06 0 1.48 1.48 0 011.34-.83c.6 0 1 .29 1 .76l-1.9.21c-1.07.11-1.79.75-1.79 1.59 0 1 .79 1.72 2 1.72a1.71 1.71 0 001.64-.82v.57a.1.1 0 00.11.1h1.29a.13.13 0 00.07 0 .09.09 0 000-.07v-3.31A2.15 2.15 0 0036 34zm.89 3.25a1 1 0 01-.3.74 1.4 1.4 0 01-1 .36c-.48 0-.77-.19-.77-.5 0-.15.06-.36.63-.43zM22.68 19.5a3.46 3.46 0 103.53 3.5 3.46 3.46 0 00-3.53-3.5zm0 5.27A1.81 1.81 0 1124.43 23a1.73 1.73 0 01-1.75 1.77zm35.14-4.38a2.71 2.71 0 00-2.07-.89 3.4 3.4 0 00-3.3 3.5 3.58 3.58 0 00.89 2.32 3.34 3.34 0 002.51 1.1 2.73 2.73 0 001.84-.68v.54h1.71v-6.72a1.7 1.7 0 00-1.58.83zm-.2 3.61a2 2 0 01-1.6.82A1.75 1.75 0 0154.23 23 1.77 1.77 0 0156 21.15a1.93 1.93 0 011.64.89zM42.5 19.5a2.62 2.62 0 00-2 1 1.67 1.67 0 00-1.62-.91v6.72h1.78v-4.2a2.05 2.05 0 011.61-.93 1.37 1.37 0 011 .37 1.56 1.56 0 01.4 1.24v3.52h1.78V22.9a3.34 3.34 0 00-.69-2.33 2.86 2.86 0 00-2.26-1.07zm-6.39 3.92a1.45 1.45 0 01-2.89 0v-3.78h-1.77v3.75a3 3 0 003.22 3 3 3 0 003.21-3v-3.75h-1.77zm-7.52-3a1.66 1.66 0 00-1.59-.86v6.72h1.78V22.1a2 2 0 011.62-1 2.24 2.24 0 01.51.05v-1.63a2.48 2.48 0 00-2.32.93zm-12.08 1.51l2.9-4.26h-2.18l-2.35 3.44a5.26 5.26 0 00-.6-.18v-3.26h-1.84v8.6h1.84v-3.53a4.89 4.89 0 013.12 3.53h1.94a6.76 6.76 0 00-2.83-4.34zm33.7.46l2.56-2.75h-2.19l-2.45 2.76v-4.83h-1.74v8.71h1.74v-1.65l1-1.05a5.37 5.37 0 012.11 2.69H53a7.37 7.37 0 00-2.79-3.88z" fill="#fff"></path><path fill="#ffe100" d="M58.66 52h-4.35V34.49a.21.21 0 00-.21-.21h-8.24a.18.18 0 00-.18.1l-11 17.82a.23.23 0 000 .11v4.64a.22.22 0 00.21.22H48.6v5.31a.21.21 0 00.22.21h5.28a.21.21 0 00.21-.21v-5.29h4.35a.21.21 0 00.21-.21v-4.8a.21.21 0 00-.21-.18zM48.6 39.26V52h-7.81l7.67-12.68z"></path></svg>
