<svg xmlns="http://www.w3.org/2000/svg" viewBox="0 0 73.85 68.84" class="GameLogo-dqQYZs KcBKG"><defs><style>.korunka_na5_svg__cls-1{fill:#d04;opacity:.4}.korunka_na5_svg__cls-2{fill:#fff}</style></defs><path d="M41.56 68C65 67.76 83.43 23.56 67.91 5.47 54-9.13 5.27 7.76.28 29.36-2.69 42.24 18.45 68 41.56 68z" class="korunka_na5_svg__cls-1"></path><path d="M5.88 13.72c-7.95 18.37 27.76 62.87 52.86 54C75.81 60.86 80.1 19.54 62.8 11 53.61 6.38 15.57-5.56 5.88 13.72z" class="korunka_na5_svg__cls-1"></path><path d="M25.31 17.85a3.46 3.46 0 103.53 3.47 3.46 3.46 0 00-3.53-3.47zm0 5.27a1.81 1.81 0 111.75-1.8 1.73 1.73 0 01-1.75 1.8zm35.14-4.38a2.7 2.7 0 00-2.07-.89 3.4 3.4 0 00-3.29 3.51 3.55 3.55 0 00.91 2.31 3.32 3.32 0 002.5 1.1 2.81 2.81 0 001.85-.67v.53H62v-6.72a1.75 1.75 0 00-1.55.83zm-.19 3.56a1.92 1.92 0 01-1.6.82 1.81 1.81 0 010-3.62 2 2 0 011.64.89zm-15.13-4.45a2.62 2.62 0 00-2 1 1.67 1.67 0 00-1.62-.91v6.72h1.78v-4.2a2.06 2.06 0 011.62-.93 1.34 1.34 0 011 .37 1.58 1.58 0 01.4 1.24v3.52h1.78v-3.41a3.39 3.39 0 00-.68-2.33 2.91 2.91 0 00-2.28-1.07zm-6.39 3.92a1.44 1.44 0 01-2.88 0V18h-1.77v3.75a3.22 3.22 0 006.42 0V18h-1.77zm-7.52-3a1.65 1.65 0 00-1.62-.89v6.72h1.78v-4.14a2 2 0 011.61-1 2.17 2.17 0 01.51.05v-1.64a2.49 2.49 0 00-2.28.93zm-12.08 1.52L22.05 16h-2.19l-2.34 3.44q-.3-.11-.6-.18V16h-1.85v8.61h1.85v-3.52A4.89 4.89 0 0120 24.63h2a6.69 6.69 0 00-2.86-4.34zm33.7.46L55.41 18h-2.19l-2.46 2.76v-4.84H49v8.71h1.74V23l1-1.05a5.37 5.37 0 012.12 2.7h1.73a7.37 7.37 0 00-2.75-3.9z" class="korunka_na5_svg__cls-2"></path><path fill="#309" d="M60.52 41.79l.32-.3a5.43 5.43 0 001.59-3.84v-4.8A5.42 5.42 0 0057 27.42l-19-.03A5.4 5.4 0 0034.13 29a5.61 5.61 0 00-.72.89 6.62 6.62 0 00-4.23-1.48 7.1 7.1 0 00-2.92.61 6.15 6.15 0 00-2.56-.55 7.06 7.06 0 00-1.24.11 4.75 4.75 0 00-.54 0h-1.3a4.08 4.08 0 00-4.07 4.07v5.13a4.08 4.08 0 004.07 4.08h1.3a3.39 3.39 0 001.22-.19 4.16 4.16 0 001.23.19h1.31a3.82 3.82 0 00.9-.11 6.56 6.56 0 001.85.26 6.79 6.79 0 001.45-.15h1.58a3.85 3.85 0 001.07-.16v6.16a5.35 5.35 0 00-1 3.08v.72c0 8.94 6.6 15.19 16.06 15.21A15.85 15.85 0 0059 62.39a16 16 0 004.49-11.5 14.91 14.91 0 00-2.97-9.1z"></path><path fill="#ffe100" d="M49.77 41.75a6.89 6.89 0 00-6.14 2.94h-.15v-6.85h13.55a.21.21 0 00.21-.21v-4.8a.22.22 0 00-.21-.22h-19a.23.23 0 00-.15.07.2.2 0 00-.06.15v15.51a.21.21 0 00.21.21h6.92a.2.2 0 00.19-.11 3.45 3.45 0 013.33-1.8c2.52 0 4.15 1.76 4.15 4.47a5.46 5.46 0 01-1.44 4 5 5 0 01-3.61 1.34c-3.12 0-5-1.93-5-5.15v-.4a.22.22 0 00-.22-.22H37a.22.22 0 00-.15.06.2.2 0 00-.06.15v.72c0 6 4.36 10 10.85 10a10.51 10.51 0 007.62-2.91 10.75 10.75 0 003-7.81c0-5.99-4.26-9.14-8.49-9.14z"></path><path d="M23.68 32.41a1.72 1.72 0 00-1.65.85v-.66a.11.11 0 00-.11-.11h-1.3a.11.11 0 00-.07 0 .11.11 0 000 .08v5.13a.1.1 0 00.1.11h1.31a.09.09 0 00.07 0 .1.1 0 000-.07v-2.66a1.41 1.41 0 01.33-1 1.14 1.14 0 01.84-.3 1 1 0 011.06 1v2.94a.11.11 0 00.1.11h1.31a.1.1 0 00.11-.11v-3.04a2.1 2.1 0 00-2.1-2.27zm5.49-.05a3.12 3.12 0 00-2.64 1.36.08.08 0 000 .08.1.1 0 000 .08l1.05.68a.08.08 0 00.08 0 .08.08 0 00.07 0 1.47 1.47 0 011.33-.84c.6 0 1 .29 1 .76l-1.87.21c-1.08.11-1.8.75-1.8 1.59 0 1 .8 1.72 2 1.72a1.72 1.72 0 001.65-.82v.57a.11.11 0 00.11.11h1.28a.1.1 0 00.11-.11v-3.28a2.16 2.16 0 00-2.37-2.11zm.9 3.25a1.06 1.06 0 01-.3.74 1.37 1.37 0 01-1 .36c-.49 0-.78-.19-.78-.5 0-.15.07-.36.64-.43z" class="korunka_na5_svg__cls-2"></path></svg>
