<svg xmlns="http://www.w3.org/2000/svg" viewBox="0 0 72.34 70.8" class="GameLogo-dqQYZs KcBKG"><defs><style>.korunka_na3_svg__cls-1{fill:#ff8020;opacity:.5}.korunka_na3_svg__cls-3{fill:#fff}</style></defs><path d="M72.27 28.74C69.33 6.15 21-8.16 4.46 9-8.71 24.21 9.33 70.39 31.93 70.8 43.94 71 74 53.09 72.27 28.74z" class="korunka_na3_svg__cls-1"></path><path d="M17.55 68.22C36.24 72 78 25.19 68.83 7.5 60.31-7 18.49 1 12.12 18.85c-3.4 9.46-14.33 44.2 5.43 49.37z" class="korunka_na3_svg__cls-1"></path><path fill="#309" d="M57.58 44.72l1-.83a5.45 5.45 0 002-4.21V35a5.42 5.42 0 00-5.42-5.42H35.32a5.26 5.26 0 00-4.59 2.55 6.53 6.53 0 00-4.32-1.55 7 7 0 00-2.91.61 6.4 6.4 0 00-2.57-.56 6.28 6.28 0 00-1.24.12 4.41 4.41 0 00-.52 0h-1.3a4.06 4.06 0 00-4.07 4.07v5.14A4.07 4.07 0 0017.86 44h1.31a4.14 4.14 0 001.22-.18 4.15 4.15 0 001.22.19h1.32a3.8 3.8 0 00.89-.11 6.58 6.58 0 001.86.26 6.86 6.86 0 001.46-.16h1.59a4.08 4.08 0 002.39-.79 5.42 5.42 0 004.21 2h.35a2.35 2.35 0 000 .26v2h-1.14a5.41 5.41 0 00-5.43 5.43v1.12c0 8.79 6.64 15 16.14 15a16.52 16.52 0 0011.88-4.52 14.33 14.33 0 004.12-10.26 13.4 13.4 0 00-3.67-9.52z"></path><path d="M20.93 34.6a1.74 1.74 0 00-1.66.85v-.66a.11.11 0 00-.11-.11h-1.29a.11.11 0 00-.08 0 .09.09 0 000 .07v5.14a.11.11 0 00.11.11h1.3a.1.1 0 00.11-.11v-2.62a1.41 1.41 0 01.34-1 1.14 1.14 0 01.84-.3.94.94 0 011.05 1v2.94a.1.1 0 00.11.1h1.31A.11.11 0 0023 40a.11.11 0 000-.08v-3.06a2.09 2.09 0 00-2.07-2.26zm5.49-.06a3.1 3.1 0 00-2.63 1.37.11.11 0 000 .08.13.13 0 00.05.07l1.06.69a.11.11 0 00.08 0h.07a1.45 1.45 0 011.33-.83c.59 0 1 .29 1 .76l-1.88.21c-1.07.11-1.79.75-1.79 1.59 0 1 .8 1.71 2 1.72a1.74 1.74 0 001.65-.82v.57a.09.09 0 00.1.1h1.29a.15.15 0 00.11-.11v-3.29a2.17 2.17 0 00-2.44-2.11zm.9 3.26a1.09 1.09 0 01-.31.74 1.39 1.39 0 01-1 .36c-.48 0-.77-.19-.77-.5 0-.15.07-.36.63-.43z" class="korunka_na3_svg__cls-3"></path><path fill="#ffe100" d="M48.46 46.25h-.83v-.16l7.69-6.25a.21.21 0 00.08-.16V35a.22.22 0 00-.22-.21H35.34a.2.2 0 00-.15.06.22.22 0 00-.06.15v4.8a.21.21 0 00.21.22h12.09L41 45.33a.24.24 0 00-.07.16v4.73a.21.21 0 00.21.21H46c2.76 0 4.35 1.38 4.35 3.79a4.19 4.19 0 01-1.19 3 5.35 5.35 0 01-3.87 1.38c-3.18 0-5.23-1.87-5.23-4.76v-1a.21.21 0 00-.21-.21h-5.31a.21.21 0 00-.15.07.2.2 0 00-.06.15v1.12c0 5.82 4.39 9.74 10.93 9.75a11.38 11.38 0 008.17-3A9.05 9.05 0 0056 54.24c0-3.84-2.33-7.98-7.54-7.99z"></path><path d="M23.43 20A3.46 3.46 0 1027 23.51 3.46 3.46 0 0023.43 20zm0 5.27a1.73 1.73 0 01-1.75-1.8 1.75 1.75 0 113.5 0 1.73 1.73 0 01-1.75 1.84zm35.14-4.38A2.7 2.7 0 0056.5 20a3.4 3.4 0 00-3.3 3.5 3.59 3.59 0 00.9 2.32A3.3 3.3 0 0056.6 27a2.73 2.73 0 001.84-.68v.54h1.72V20.1a1.72 1.72 0 00-1.59.83zm-.19 3.56a2 2 0 01-1.61.82A1.76 1.76 0 0155 23.52a1.78 1.78 0 011.75-1.84 2 2 0 011.65.9zM43.25 20a2.62 2.62 0 00-2 1 1.67 1.67 0 00-1.62-.91v6.72h1.78v-4.2a2.06 2.06 0 011.59-.93 1.41 1.41 0 011 .37 1.6 1.6 0 01.4 1.25v3.52h1.78v-3.38a3.34 3.34 0 00-.69-2.33A2.85 2.85 0 0043.25 20zm-6.39 4A1.45 1.45 0 0134 24v-3.82h-1.8v3.75a3 3 0 003.22 3 3 3 0 003.21-3v-3.75h-1.77zm-7.52-3a1.65 1.65 0 00-1.62-.89v6.72h1.78v-4.19a2 2 0 011.61-1 2.15 2.15 0 01.51.06v-1.64a2.49 2.49 0 00-2.28.94zm-12.08 1.47l2.91-4.26H18l-2.35 3.44a5.76 5.76 0 00-.59-.18v-3.26h-1.87v8.6H15v-3.53a4.9 4.9 0 013.11 3.53h1.94a6.73 6.73 0 00-2.79-4.34zm33.7.46l2.56-2.75h-2.19l-2.45 2.76v-4.83h-1.74v8.71h1.74v-1.65l1-1.05A5.39 5.39 0 0152 26.81h1.73A7.37 7.37 0 0051 22.93z" class="korunka_na3_svg__cls-3"></path></svg>
