<svg version="1.1" id="Layer_1" xmlns="http://www.w3.org/2000/svg" xmlns:xlink="http://www.w3.org/1999/xlink" x="0" y="0" viewBox="0 0 85 85" xml:space="preserve"><style/><defs><path id="SVGID_1_" d="M0 0h85v85H0z"/></defs><clipPath id="SVGID_00000011017233211670361780000007857953766611633072_"><use xlink:href="#SVGID_1_" overflow="visible"/></clipPath><g clip-path="url(#SVGID_00000011017233211670361780000007857953766611633072_)"><radialGradient id="SVGID_00000157996755262147624460000006564245626775896720_" cx="-369.27" cy="625.804" r="1" gradientTransform="matrix(43.3 0 0 -43.3 16031.9 27139.764)" gradientUnits="userSpaceOnUse"><stop offset="0" stop-color="#fdec49"/><stop offset=".64" stop-color="#fdea14"/><stop offset=".79" stop-color="#ffda05"/><stop offset=".91" stop-color="#f9b807"/><stop offset="1" stop-color="#ef8504"/></radialGradient><path d="M85 42.5c0 8.4-2.5 16.6-7.2 23.6S66.5 78.5 58.7 81.7C51 85 42.4 85.8 34.2 84.2c-8.2-1.6-15.8-5.7-21.8-11.6-5.9-6-10-13.6-11.6-21.8S0 34 3.2 26.2c3.2-7.8 8.7-14.4 15.7-19.1C25.9 2.4 34.1 0 42.5 0c5.6 0 11.1 1.1 16.3 3.2s9.8 5.3 13.8 9.2c3.9 4 7.1 8.6 9.2 13.8 2.1 5.2 3.2 10.7 3.2 16.3z" fill="url(#SVGID_00000157996755262147624460000006564245626775896720_)"/><linearGradient id="SVGID_00000098215845170728420800000011550115261813208709_" gradientUnits="userSpaceOnUse" x1="29.515" y1="39.393" x2="81.539" y2="62.403" gradientTransform="matrix(1 0 0 -1 0 86.551)"><stop offset=".2" stop-color="#fff" stop-opacity="0"/><stop offset=".38" stop-color="#fff" stop-opacity=".08"/><stop offset=".63" stop-color="#fff" stop-opacity=".45"/><stop offset=".78" stop-color="#fce428" stop-opacity=".53"/><stop offset=".939" stop-color="#fce428" stop-opacity=".72"/></linearGradient><path d="M17.3 24.7c-2.2 9.8-.6 20.1 4.4 28.9l.4.8c5 9.1 13.3 15.9 23.2 19 8.9 2.7 18.3 1.7 26-3.5 1.2-.8 2.3-1.6 3.3-2.6 4.7-4.4 8-10 9.4-16.3 2.2-10.1.5-20.7-4.7-29.7l-.4-.7C73.7 11.9 65.6 5.4 56 2.3 49.9.4 43.3.4 37.2 2.3c-5 1.6-9.5 4.5-13 8.5-3.5 3.9-5.9 8.7-6.9 13.9z" fill="url(#SVGID_00000098215845170728420800000011550115261813208709_)"/><radialGradient id="SVGID_00000011726133278712456320000007350093439770473146_" cx="-392.873" cy="645.744" r="1" gradientTransform="matrix(-34.5 -13 -18.7894 49.864 -1396.03 -37267.234)" gradientUnits="userSpaceOnUse"><stop offset=".2" stop-color="#fff" stop-opacity="0"/><stop offset=".353" stop-color="#fce530"/><stop offset=".472" stop-color="#fce530" stop-opacity=".52"/><stop offset=".576" stop-color="#fffce7" stop-opacity=".98"/><stop offset=".802" stop-color="#fff"/></radialGradient><path d="M7 62.7l.4-.2c.2-.1.5-.3.7-.4.2-.1.4-.2.5-.4l.3-.6v-.4c0-.1-.1-.2-.2-.3-3.2-5.1-6.8-27.3 7.6-40.5 1.3-1.2 2.8-2.4 4.3-3.3.1-1.4 2.4-5.6 4.1-7.3-2.7.7-5.2 1.7-7.7 3-2.4 1.4-4.7 3.2-6.6 5.3-2.5 2.7-4.5 5.9-5.9 9.3C-1.1 40.2 1.6 56.6 7 62.7z" fill="url(#SVGID_00000011726133278712456320000007350093439770473146_)"/><path d="M61.8 7c16.3 6.4 22.9 29.5 21.8 35.2-.2 1.1-1 1-1.2-.1-1.2-5.5-10.8-24.8-24.5-30.8-3.9-1.8-2-6.7 3.9-4.3z" fill="#fff"/><path d="M57.9 25.9c1.8-1 3.1-1.8 5.2-3.1 16 5.6 18.3 26.9 7.6 36.5-2.7.4-5.4.5-8.1.5.7-12.8-2.1-30-4.7-33.9z" opacity=".75" fill="#fff"/><linearGradient id="SVGID_00000044857797927697445260000001139522982215473314_" gradientUnits="userSpaceOnUse" x1="21.213" y1="36.358" x2="71.957" y2="65.651" gradientTransform="matrix(1 0 0 -1 0 86.551)"><stop offset=".56" stop-color="#1a1d56"/><stop offset=".84" stop-color="#005592"/><stop offset="1" stop-color="#009ee2"/></linearGradient><path d="M57.8 63.6c-10.7.2-21.4-1.8-31.4-5.6-.6-.3-1.2-.8-1.5-1.4-4.5-9.4-7.5-19.4-8.9-29.6-.1-.6.1-1.3.5-1.8 4.9-7.6 13.4-15.3 20.6-19 .5-.2 1-.4 1.6-.4 8.7.2 19.4 2.2 26.8 5.5.5.2 1 .6 1.3 1.1 4.7 6.8 8.6 17 10.4 25.9.1.6.1 1.2-.2 1.7-3 7-9.8 16.5-17.6 23-.4.4-1 .6-1.6.6z" fill="url(#SVGID_00000044857797927697445260000001139522982215473314_)"/><linearGradient id="SVGID_00000097464501064194371420000014613415182830069127_" gradientUnits="userSpaceOnUse" x1="31.172" y1="45.684" x2="59.467" y2="73.978" gradientTransform="matrix(1 0 0 -1 0 86.551)"><stop offset=".23" stop-color="#ffda05"/><stop offset=".64" stop-color="#fdea14"/><stop offset="1" stop-color="#fdf081"/></linearGradient><path d="M53.2 42.3c2.1-2.4 4.1-4.8 6-7.1-8.3-2-18.6-4.1-26.9-5.7 3.5-4 7.2-7.8 10.6-11.1 6.8 1.2 13.6 2.8 20.2 4.9 2.2.7 2.9-1.3 2.2-2.8-.7-1.5-1.4-2.9-2.1-4.2-.4-.8-1.2-1.4-2-1.7-6.5-2.1-13.2-3.6-20.1-4.3-.5-.1-1 0-1.5.1s-.9.4-1.3.7c-5.8 4.5-11 9.6-15.5 15.4.3 1.4.6 2.8 1 4.3 1.5 6.1 5.9 7.8 9.7 8.7 5.3 1.2 11.2 2.5 16.8 3.6.5.1 1.1.1 1.6-.1.5 0 1-.3 1.3-.7z" fill="url(#SVGID_00000097464501064194371420000014613415182830069127_)"/><path d="M70.1 33.2c-1.5-5.3-5.2-7.5-8.9-8.6-4.8-1.5-10.3-2.8-15.8-3.9-.5-.1-1-.1-1.5.1-.5.1-.9.4-1.3.8-2.1 2.1-4.2 4.3-6.3 6.6C45 29.8 55.1 32 62.8 34c-2.9 3.8-6.3 8-9.8 12-7.2-1.3-15.2-3-22-4.7-2.2-.5-3.7 1.6-2.9 3.6.6 1.8 1.3 3.5 2 5.2.2.5.5.9.9 1.3.4.3.8.6 1.3.7 7.4 2.1 15 3.5 22.6 4.3.5 0 1 0 1.4-.2.5-.2.9-.4 1.2-.8 5.3-5.4 10-11.4 13.9-17.8-.4-1.5-.8-2.9-1.3-4.4z" fill="#79b833"/><g opacity=".75"><path d="M61.8 7c16.3 6.4 22.9 29.5 21.8 35.2-.2 1.1-1 1-1.2-.1-1.2-5.5-10.8-24.8-24.5-30.8-3.9-1.8-2-6.7 3.9-4.3z" opacity=".3" fill="#fff"/></g><linearGradient id="SVGID_00000031912207751183697040000005139540002389945508_" gradientUnits="userSpaceOnUse" x1="58.637" y1="43.642" x2="76.748" y2="47.823" gradientTransform="matrix(1 0 0 -1 0 86.551)"><stop offset=".2" stop-color="#fff" stop-opacity="0"/><stop offset=".37" stop-color="#fff" stop-opacity=".28"/><stop offset=".54" stop-color="#fff" stop-opacity=".54"/><stop offset=".69" stop-color="#fff" stop-opacity=".74"/><stop offset=".82" stop-color="#fff" stop-opacity=".88"/><stop offset=".93" stop-color="#fff" stop-opacity=".97"/><stop offset="1" stop-color="#fff"/></linearGradient><path d="M57.9 25.9c1.8-1 3.1-1.8 5.2-3.1 16 5.6 18.3 26.9 7.6 36.5-2.7.4-5.4.5-8.1.5.7-12.8-2.1-30-4.7-33.9z" opacity=".75" fill="url(#SVGID_00000031912207751183697040000005139540002389945508_)"/></g></svg>